AdventPro-bld_wd_it.ufo
<glyph name="ampersand" format="1">
  <advance width="765" height="962"/>
  <unicode hex="0026"/>
  <outline>
    <contour>
      <point x="684" y="590" type="line"/>
      <point x="436" y="590" type="line" smooth="yes"/>
      <point x="388" y="590"/>
      <point x="356" y="571"/>
      <point x="349" y="536" type="curve" smooth="yes"/>
      <point x="336" y="474"/>
      <point x="404" y="421"/>
      <point x="487" y="404" type="curve"/>
      <point x="556" y="404" type="line"/>
      <point x="578" y="508" type="line"/>
      <point x="691" y="508" type="line"/>
      <point x="669" y="404" type="line"/>
      <point x="819" y="404" type="line"/>
      <point x="767" y="307" type="line"/>
      <point x="648" y="307" type="line"/>
      <point x="612" y="137" type="line" smooth="yes"/>
      <point x="602" y="91"/>
      <point x="648" y="80"/>
      <point x="717" y="80" type="curve"/>
      <point x="667" y="-8" type="line"/>
      <point x="592" y="-7"/>
      <point x="526" y="6"/>
      <point x="496" y="38" type="curve"/>
      <point x="430" y="6"/>
      <point x="343" y="-4"/>
      <point x="270" y="-4" type="curve" smooth="yes"/>
      <point x="144" y="-4"/>
      <point x="35" y="24"/>
      <point x="64" y="162" type="curve" smooth="yes"/>
      <point x="85" y="257" type="line" smooth="yes"/>
      <point x="107" y="360"/>
      <point x="177" y="404"/>
      <point x="288" y="404" type="curve" smooth="yes"/>
      <point x="324" y="404" type="line"/>
      <point x="245" y="435"/>
      <point x="219" y="484"/>
      <point x="234" y="556" type="curve" smooth="yes"/>
      <point x="253" y="645"/>
      <point x="343" y="702"/>
      <point x="468" y="702" type="curve" smooth="yes"/>
      <point x="740" y="702" type="line"/>
    </contour>
    <contour>
      <point x="536" y="311" type="line"/>
      <point x="316" y="311" type="line" smooth="yes"/>
      <point x="258" y="311"/>
      <point x="204" y="298"/>
      <point x="196" y="259" type="curve" smooth="yes"/>
      <point x="176" y="165" type="line" smooth="yes"/>
      <point x="168" y="127"/>
      <point x="215" y="99"/>
      <point x="291" y="99" type="curve" smooth="yes"/>
      <point x="389" y="99"/>
      <point x="497" y="125"/>
      <point x="506" y="168" type="curve" smooth="yes"/>
    </contour>
  </outline>
</glyph>
<glyph name="four" format="1">
  <advance width="791" height="962"/>
  <unicode hex="0034"/>
  <outline>
    <contour>
      <point x="543" y="0" type="line"/>
      <point x="608" y="307" type="line"/>
      <point x="83" y="307" type="line"/>
      <point x="450" y="700" type="line"/>
      <point x="582" y="700" type="line"/>
      <point x="320" y="414" type="line"/>
      <point x="631" y="414" type="line"/>
      <point x="692" y="700" type="line"/>
      <point x="804" y="700" type="line"/>
      <point x="743" y="414" type="line"/>
      <point x="848" y="414" type="line"/>
      <point x="804" y="307" type="line"/>
      <point x="720" y="307" type="line"/>
      <point x="655" y="0" type="line"/>
    </contour>
  </outline>
</glyph>
<glyph name="eight" format="1">
  <advance width="702" height="962"/>
  <unicode hex="0038"/>
  <outline>
    <contour>
      <point x="501" y="710" type="curve" smooth="yes"/>
      <point x="647" y="710"/>
      <point x="750" y="641"/>
      <point x="728" y="534" type="curve" smooth="yes"/>
      <point x="713" y="465"/>
      <point x="666" y="416"/>
      <point x="582" y="389" type="curve"/>
      <point x="677" y="359"/>
      <point x="731" y="289"/>
      <point x="713" y="202" type="curve" smooth="yes"/>
      <point x="682" y="55"/>
      <point x="521" y="-12"/>
      <point x="346" y="-12" type="curve" smooth="yes"/>
      <point x="169" y="-12"/>
      <point x="39" y="54"/>
      <point x="71" y="202" type="curve" smooth="yes"/>
      <point x="89" y="287"/>
      <point x="174" y="363"/>
      <point x="283" y="390" type="curve"/>
      <point x="213" y="418"/>
      <point x="187" y="466"/>
      <point x="202" y="534" type="curve" smooth="yes"/>
      <point x="224" y="642"/>
      <point x="354" y="710"/>
    </contour>
    <contour>
      <point x="448" y="468" type="curve" smooth="yes"/>
      <point x="530" y="468"/>
      <point x="599" y="497"/>
      <point x="607" y="535" type="curve" smooth="yes"/>
      <point x="616" y="577"/>
      <point x="567" y="601"/>
      <point x="477" y="601" type="curve" smooth="yes"/>
      <point x="390" y="601"/>
      <point x="327" y="577"/>
      <point x="318" y="535" type="curve" smooth="yes"/>
      <point x="309" y="495"/>
      <point x="364" y="468"/>
    </contour>
    <contour>
      <point x="370" y="97" type="curve" smooth="yes"/>
      <point x="481" y="97"/>
      <point x="575" y="133"/>
      <point x="590" y="202" type="curve" smooth="yes"/>
      <point x="605" y="271"/>
      <point x="526" y="307"/>
      <point x="414" y="307" type="curve" smooth="yes"/>
      <point x="301" y="307"/>
      <point x="207" y="271"/>
      <point x="192" y="202" type="curve" smooth="yes"/>
      <point x="177" y="133"/>
      <point x="257" y="97"/>
    </contour>
  </outline>
</glyph>
<glyph name="nine" format="1">
  <advance width="699" height="962"/>
  <unicode hex="0039"/>
  <outline>
    <contour>
      <point x="497" y="710" type="curve" smooth="yes"/>
      <point x="675" y="710"/>
      <point x="797" y="627"/>
      <point x="770" y="498" type="curve" smooth="yes"/>
      <point x="717" y="249" type="line" smooth="yes"/>
      <point x="684" y="93"/>
      <point x="527" y="-1"/>
      <point x="298" y="-1" type="curve" smooth="yes"/>
      <point x="245" y="-1" type="line"/>
      <point x="266" y="101" type="line"/>
      <point x="325" y="101" type="line" smooth="yes"/>
      <point x="467" y="101"/>
      <point x="576" y="158"/>
      <point x="594" y="243" type="curve" smooth="yes"/>
      <point x="611" y="326" type="line"/>
      <point x="612" y="328"/>
      <point x="529" y="287"/>
      <point x="407" y="287" type="curve" smooth="yes"/>
      <point x="224" y="287"/>
      <point x="104" y="366"/>
      <point x="132" y="498" type="curve" smooth="yes"/>
      <point x="159" y="628"/>
      <point x="317" y="710"/>
    </contour>
    <contour>
      <point x="474" y="601" type="curve" smooth="yes"/>
      <point x="364" y="601"/>
      <point x="266" y="566"/>
      <point x="252" y="499" type="curve" smooth="yes"/>
      <point x="238" y="432"/>
      <point x="320" y="395"/>
      <point x="430" y="395" type="curve" smooth="yes"/>
      <point x="542" y="395"/>
      <point x="635" y="432"/>
      <point x="649" y="499" type="curve" smooth="yes"/>
      <point x="663" y="566"/>
      <point x="586" y="601"/>
    </contour>
  </outline>
</glyph>
<glyph name="A" format="1">
  <advance width="793" height="962"/>
  <unicode hex="0041"/>
  <outline>
    <contour>
      <point x="766" y="0" type="line"/>
      <point x="639" y="0" type="line"/>
      <point x="600" y="184" type="line"/>
      <point x="263" y="184" type="line"/>
      <point x="148" y="0" type="line"/>
      <point x="24" y="0" type="line"/>
      <point x="467" y="700" type="line"/>
      <point x="621" y="700" type="line"/>
    </contour>
    <contour>
      <point x="338" y="301" type="line"/>
      <point x="575" y="301" type="line"/>
      <point x="519" y="586" type="line"/>
    </contour>
  </outline>
</glyph>
<glyph name="L" format="1">
  <advance width="610" height="962"/>
  <unicode hex="004C"/>
  <outline>
    <contour>
      <point x="42" y="0" type="line"/>
      <point x="191" y="700" type="line"/>
      <point x="302" y="700" type="line"/>
      <point x="175" y="102" type="line"/>
      <point x="607" y="102" type="line"/>
      <point x="585" y="0" type="line"/>
    </contour>
  </outline>
</glyph>
<glyph name="Q" format="1">
  <advance width="700" height="962"/>
  <unicode hex="0051"/>
  <outline>
    <component base="O"/>
    <contour>
      <point x="418" y="45" type="line" smooth="yes"/>
      <point x="408" y="1"/>
      <point x="462" y="-22"/>
      <point x="603" y="-22" type="curve"/>
      <point x="562" y="-118" type="line"/>
      <point x="322" y="-118"/>
      <point x="286" y="-50"/>
      <point x="304" y="31" type="curve" smooth="yes"/>
      <point x="334" y="174" type="line"/>
      <point x="445" y="174" type="line"/>
    </contour>
  </outline>
</glyph>
<glyph name="backslash" format="1">
  <advance width="719" height="962"/>
  <unicode hex="005C"/>
  <outline>
    <contour>
      <point x="492" y="-115" type="line"/>
      <point x="198" y="819" type="line"/>
      <point x="380" y="819" type="line"/>
      <point x="669" y="-115" type="line"/>
    </contour>
  </outline>
</glyph>
<glyph name="f" format="1">
  <advance width="380" height="962"/>
  <unicode hex="0066"/>
  <outline>
    <contour>
      <point x="457" y="608" type="line"/>
      <point x="443" y="612"/>
      <point x="409" y="613"/>
      <point x="390" y="613" type="curve" smooth="yes"/>
      <point x="313" y="613"/>
      <point x="281" y="593"/>
      <point x="276" y="567" type="curve" smooth="yes"/>
      <point x="261" y="501" type="line"/>
      <point x="448" y="501" type="line"/>
      <point x="399" y="397" type="line"/>
      <point x="239" y="397" type="line"/>
      <point x="155" y="0" type="line"/>
      <point x="39" y="0" type="line"/>
      <point x="158" y="559" type="line" smooth="yes"/>
      <point x="184" y="681"/>
      <point x="284" y="713"/>
      <point x="404" y="713" type="curve" smooth="yes"/>
      <point x="431" y="713"/>
      <point x="479" y="710"/>
      <point x="505" y="706" type="curve"/>
    </contour>
  </outline>
</glyph>
<glyph name="m" format="1">
  <advance width="1042" height="962"/>
  <unicode hex="006D"/>
  <outline>
    <contour>
      <point x="966" y="342" type="line" smooth="yes"/>
      <point x="978" y="401"/>
      <point x="919" y="412"/>
      <point x="837" y="412" type="curve" smooth="yes"/>
      <point x="790" y="412"/>
      <point x="729" y="406"/>
      <point x="654" y="385" type="curve"/>
      <point x="656" y="373"/>
      <point x="652" y="350"/>
      <point x="649" y="335" type="curve" smooth="yes"/>
      <point x="578" y="0" type="line"/>
      <point x="467" y="0" type="line"/>
      <point x="540" y="342" type="line" smooth="yes"/>
      <point x="554" y="408"/>
      <point x="468" y="412"/>
      <point x="403" y="412" type="curve" smooth="yes"/>
      <point x="357" y="412"/>
      <point x="298" y="405"/>
      <point x="233" y="385" type="curve"/>
      <point x="151" y="0" type="line"/>
      <point x="39" y="0" type="line"/>
      <point x="145" y="501" type="line"/>
      <point x="257" y="501" type="line"/>
      <point x="252" y="477" type="line"/>
      <point x="288" y="487"/>
      <point x="376" y="509"/>
      <point x="462" y="509" type="curve" smooth="yes"/>
      <point x="532" y="509"/>
      <point x="593" y="496"/>
      <point x="628" y="460" type="curve"/>
      <point x="694" y="487"/>
      <point x="798" y="509"/>
      <point x="862" y="509" type="curve" smooth="yes"/>
      <point x="981" y="509"/>
      <point x="1113" y="509"/>
      <point x="1078" y="345" type="curve" smooth="yes"/>
      <point x="1005" y="0" type="line"/>
      <point x="893" y="0" type="line"/>
    </contour>
  </outline>
</glyph>
<glyph name="n" format="1">
  <advance width="629" height="962"/>
  <unicode hex="006E"/>
  <outline>
    <contour>
      <point x="554" y="343" type="line" smooth="yes"/>
      <point x="566" y="398"/>
      <point x="490" y="410"/>
      <point x="398" y="410" type="curve" smooth="yes"/>
      <point x="350" y="410"/>
      <point x="301" y="404"/>
      <point x="232" y="386" type="curve"/>
      <point x="150" y="-1" type="line"/>
      <point x="38" y="-1" type="line"/>
      <point x="144" y="501" type="line"/>
      <point x="256" y="501" type="line"/>
      <point x="252" y="478" type="line"/>
      <point x="288" y="488"/>
      <point x="374" y="510"/>
      <point x="460" y="510" type="curve" smooth="yes"/>
      <point x="580" y="510"/>
      <point x="693" y="475"/>
      <point x="666" y="346" type="curve" smooth="yes"/>
      <point x="592" y="-1" type="line"/>
      <point x="481" y="-1" type="line"/>
    </contour>
  </outline>
</glyph>
<glyph name="w" format="1">
  <advance width="1066" height="962"/>
  <unicode hex="0077"/>
  <outline>
    <contour>
      <point x="697" y="500" type="line"/>
      <point x="768" y="129" type="line"/>
      <point x="1018" y="500" type="line"/>
      <point x="1145" y="500" type="line"/>
      <point x="806" y="0" type="line"/>
      <point x="671" y="0" type="line"/>
      <point x="603" y="346" type="line"/>
      <point x="389" y="0" type="line"/>
      <point x="249" y="0" type="line"/>
      <point x="123" y="500" type="line"/>
      <point x="247" y="500" type="line"/>
      <point x="343" y="127" type="line"/>
      <point x="572" y="500" type="line"/>
    </contour>
  </outline>
</glyph>
<glyph name="registered" format="1">
  <advance width="1014" height="962"/>
  <unicode hex="00AE"/>
  <outline>
    <contour>
      <point x="1021" y="186" type="line" smooth="yes"/>
      <point x="981" y="1"/>
      <point x="764" y="-95"/>
      <point x="486" y="-95" type="curve" smooth="yes"/>
      <point x="208" y="-95"/>
      <point x="30" y="1"/>
      <point x="70" y="186" type="curve" smooth="yes"/>
      <point x="100" y="327" type="line" smooth="yes"/>
      <point x="139" y="512"/>
      <point x="357" y="605"/>
      <point x="635" y="605" type="curve" smooth="yes"/>
      <point x="913" y="605"/>
      <point x="1090" y="512"/>
      <point x="1051" y="327" type="curve" smooth="yes"/>
    </contour>
    <contour>
      <point x="937" y="310" type="line" smooth="yes"/>
      <point x="963" y="431"/>
      <point x="877" y="505"/>
      <point x="613" y="505" type="curve" smooth="yes"/>
      <point x="352" y="505"/>
      <point x="232" y="429"/>
      <point x="207" y="310" type="curve" smooth="yes"/>
      <point x="184" y="203" type="line" smooth="yes"/>
      <point x="160" y="89"/>
      <point x="246" y="7"/>
      <point x="507" y="7" type="curve" smooth="yes"/>
      <point x="771" y="7"/>
      <point x="890" y="91"/>
      <point x="914" y="203" type="curve" smooth="yes"/>
    </contour>
    <contour>
      <point x="640" y="444" type="line" smooth="yes"/>
      <point x="799" y="444"/>
      <point x="847" y="399"/>
      <point x="822" y="284" type="curve" smooth="yes"/>
      <point x="808" y="217"/>
      <point x="774" y="173"/>
      <point x="718" y="151" type="curve"/>
      <point x="778" y="61" type="line"/>
      <point x="628" y="61" type="line"/>
      <point x="595" y="129" type="line"/>
      <point x="389" y="129" type="line"/>
      <point x="375" y="61" type="line"/>
      <point x="265" y="61" type="line"/>
      <point x="346" y="444" type="line"/>
    </contour>
    <contour>
      <point x="624" y="234" type="line" smooth="yes"/>
      <point x="659" y="234"/>
      <point x="690" y="238"/>
      <point x="699" y="284" type="curve" smooth="yes"/>
      <point x="709" y="331"/>
      <point x="678" y="334"/>
      <point x="644" y="334" type="curve" smooth="yes"/>
      <point x="433" y="334" type="line"/>
      <point x="412" y="234" type="line"/>
    </contour>
  </outline>
</glyph>
<glyph name="degree" format="1">
  <advance width="351" height="962"/>
  <unicode hex="00B0"/>
  <outline>
    <contour>
      <point x="442" y="566" type="curve" smooth="yes"/>
      <point x="425" y="486"/>
      <point x="345" y="420"/>
      <point x="265" y="420" type="curve" smooth="yes"/>
      <point x="183" y="420"/>
      <point x="131" y="486"/>
      <point x="148" y="566" type="curve" smooth="yes"/>
      <point x="166" y="648"/>
      <point x="245" y="712"/>
      <point x="327" y="712" type="curve" smooth="yes"/>
      <point x="407" y="712"/>
      <point x="460" y="648"/>
    </contour>
    <contour>
      <point x="308" y="619" type="curve" smooth="yes"/>
      <point x="278" y="619"/>
      <point x="251" y="596"/>
      <point x="244" y="566" type="curve" smooth="yes"/>
      <point x="238" y="537"/>
      <point x="255" y="514"/>
      <point x="285" y="514" type="curve" smooth="yes"/>
      <point x="311" y="514"/>
      <point x="342" y="537"/>
      <point x="348" y="566" type="curve" smooth="yes"/>
      <point x="355" y="596"/>
      <point x="334" y="619"/>
    </contour>
  </outline>
</glyph>
<glyph name="eth" format="1">
  <advance width="607" height="962"/>
  <unicode hex="00F0"/>
  <outline>
    <contour>
      <point x="366" y="632" type="curve"/>
      <point x="407" y="701" type="line"/>
      <point x="502" y="690"/>
      <point x="595" y="669"/>
      <point x="645" y="610" type="curve" smooth="yes"/>
      <point x="673" y="576"/>
      <point x="694" y="534"/>
      <point x="681" y="474" type="curve" smooth="yes"/>
      <point x="618" y="177" type="line" smooth="yes"/>
      <point x="588" y="39"/>
      <point x="479" y="-9"/>
      <point x="296" y="-9" type="curve" smooth="yes"/>
      <point x="124" y="-9"/>
      <point x="34" y="44"/>
      <point x="63" y="177" type="curve" smooth="yes"/>
      <point x="79" y="256" type="line" smooth="yes"/>
      <point x="108" y="389"/>
      <point x="206" y="433"/>
      <point x="372" y="433" type="curve" smooth="yes"/>
      <point x="437" y="433"/>
      <point x="508" y="422"/>
      <point x="549" y="403" type="curve"/>
      <point x="563" y="471" type="line" smooth="yes"/>
      <point x="590" y="596"/>
      <point x="363" y="632"/>
    </contour>
    <contour>
      <point x="191" y="261" type="curve" smooth="yes"/>
      <point x="172" y="171" type="line" smooth="yes"/>
      <point x="162" y="123"/>
      <point x="198" y="95"/>
      <point x="320" y="95" type="curve" smooth="yes"/>
      <point x="432" y="95"/>
      <point x="489" y="121"/>
      <point x="499" y="171" type="curve" smooth="yes"/>
      <point x="523" y="282" type="line" smooth="yes"/>
      <point x="531" y="319"/>
      <point x="431" y="331"/>
      <point x="329" y="331" type="curve" smooth="yes"/>
      <point x="250" y="331"/>
      <point x="201" y="307"/>
    </contour>
    <contour>
      <point x="706" y="657" type="line"/>
      <point x="401" y="478" type="line"/>
      <point x="369" y="535" type="line"/>
      <point x="676" y="714" type="line"/>
    </contour>
  </outline>
</glyph>
<glyph name="lslash" format="1">
  <advance width="453" height="962"/>
  <unicode hex="0142"/>
  <outline>
    <component base="l" xOffset="128.5"/>
    <contour>
      <point x="511" y="490" type="line"/>
      <point x="520" y="408" type="line"/>
      <point x="106" y="274" type="line"/>
      <point x="96" y="357" type="line"/>
    </contour>
  </outline>
</glyph>
<glyph name="Eng" format="1">
  <advance width="814" height="962"/>
  <unicode hex="014A"/>
  <outline>
    <contour>
      <point x="757" y="-49" type="line" smooth="yes"/>
      <point x="735" y="-150"/>
      <point x="634" y="-214"/>
      <point x="494" y="-214" type="curve"/>
      <point x="487" y="-125" type="line"/>
      <point x="566" y="-114"/>
      <point x="635" y="-99"/>
      <point x="646" y="-48" type="curve" smooth="yes"/>
      <point x="656" y="0" type="line"/>
      <point x="267" y="543" type="line"/>
      <point x="152" y="0" type="line"/>
      <point x="42" y="0" type="line"/>
      <point x="191" y="700" type="line"/>
      <point x="304" y="700" type="line"/>
      <point x="689" y="156" type="line"/>
      <point x="805" y="700" type="line"/>
      <point x="916" y="700" type="line"/>
    </contour>
  </outline>
</glyph>
<glyph name="Tbar" format="1">
  <advance width="633" height="962"/>
  <unicode hex="0166"/>
  <outline>
    <component base="T"/>
    <contour>
      <point x="105" y="414" type="line"/>
      <point x="704" y="414" type="line"/>
      <point x="685" y="324" type="line"/>
      <point x="86" y="324" type="line"/>
    </contour>
  </outline>
</glyph>
<glyph name="tilde" format="1">
  <advance width="267" height="962"/>
  <unicode hex="02DC"/>
  <outline>
    <contour>
      <point x="348" y="710" type="line"/>
      <point x="415" y="710" type="line"/>
      <point x="413" y="702" type="line" smooth="yes"/>
      <point x="403" y="652"/>
      <point x="365" y="607"/>
      <point x="311" y="607" type="curve" smooth="yes"/>
      <point x="297" y="607"/>
      <point x="286" y="612"/>
      <point x="275" y="617" type="curve" smooth="yes"/>
      <point x="270" y="620"/>
      <point x="252" y="633"/>
      <point x="246" y="637" type="curve" smooth="yes"/>
      <point x="238" y="644"/>
      <point x="229" y="647"/>
      <point x="222" y="647" type="curve" smooth="yes"/>
      <point x="206" y="647"/>
      <point x="204" y="635"/>
      <point x="201" y="621" type="curve" smooth="yes"/>
      <point x="199" y="613" type="line"/>
      <point x="132" y="613" type="line"/>
      <point x="134" y="621" type="line" smooth="yes"/>
      <point x="142" y="660"/>
      <point x="164" y="698"/>
      <point x="207" y="710" type="curve" smooth="yes"/>
      <point x="231" y="717"/>
      <point x="254" y="714"/>
      <point x="274" y="704" type="curve" smooth="yes"/>
      <point x="284" y="698"/>
      <point x="289" y="694"/>
      <point x="301" y="686" type="curve" smooth="yes"/>
      <point x="306" y="682"/>
      <point x="318" y="674"/>
      <point x="326" y="674" type="curve" smooth="yes"/>
      <point x="340" y="674"/>
      <point x="344" y="690"/>
      <point x="346" y="702" type="curve" smooth="yes"/>
    </contour>
  </outline>
</glyph>
<glyph name="circumflexcomb" format="1">
  <advance width="267" height="962"/>
  <unicode hex="0302"/>
  <outline>
    <contour>
      <point x="401" y="645" type="line"/>
      <point x="337" y="594" type="line"/>
      <point x="279" y="675" type="line"/>
      <point x="181" y="593" type="line"/>
      <point x="140" y="644" type="line"/>
      <point x="300" y="772" type="line"/>
    </contour>
  </outline>
</glyph>
<glyph name="Psi" format="1">
  <advance width="860" height="962"/>
  <unicode hex="03A8"/>
  <outline>
    <contour>
      <point x="237" y="432" type="line" smooth="yes"/>
      <point x="218" y="342"/>
      <point x="246" y="307"/>
      <point x="341" y="307" type="curve" smooth="yes"/>
      <point x="433" y="307" type="line"/>
      <point x="517" y="700" type="line"/>
      <point x="628" y="700" type="line"/>
      <point x="544" y="307" type="line"/>
      <point x="647" y="307" type="line" smooth="yes"/>
      <point x="737" y="307"/>
      <point x="786" y="341"/>
      <point x="806" y="434" type="curve" smooth="yes"/>
      <point x="834" y="565" type="line" smooth="yes"/>
      <point x="849" y="637"/>
      <point x="789" y="665"/>
      <point x="784" y="667" type="curve"/>
      <point x="893" y="710" type="line"/>
      <point x="919" y="701"/>
      <point x="964" y="661"/>
      <point x="943" y="560" type="curve" smooth="yes"/>
      <point x="911" y="407" type="line" smooth="yes"/>
      <point x="885" y="286"/>
      <point x="801" y="214"/>
      <point x="607" y="214" type="curve" smooth="yes"/>
      <point x="524" y="214" type="line"/>
      <point x="479" y="0" type="line"/>
      <point x="368" y="0" type="line"/>
      <point x="413" y="214" type="line"/>
      <point x="341" y="214" type="line" smooth="yes"/>
      <point x="152" y="214"/>
      <point x="93" y="286"/>
      <point x="119" y="407" type="curve" smooth="yes"/>
      <point x="181" y="700" type="line"/>
      <point x="294" y="700" type="line"/>
    </contour>
  </outline>
</glyph>
<glyph name="nu" format="1">
  <advance width="619" height="962"/>
  <unicode hex="03BD"/>
  <outline>
    <contour>
      <point x="124" y="501" type="line"/>
      <point x="242" y="501" type="line"/>
      <point x="331" y="116" type="line"/>
      <point x="583" y="501" type="line"/>
      <point x="699" y="501" type="line"/>
      <point x="362" y="0" type="line"/>
      <point x="246" y="0" type="line"/>
    </contour>
  </outline>
</glyph>
<glyph name="xi" format="1">
  <advance width="615" height="962"/>
  <unicode hex="03BE"/>
  <outline>
    <contour>
      <point x="645" y="588" type="line"/>
      <point x="432" y="588" type="line" smooth="yes"/>
      <point x="375" y="588"/>
      <point x="353" y="563"/>
      <point x="346" y="531" type="curve" smooth="yes"/>
      <point x="334" y="476"/>
      <point x="439" y="439"/>
      <point x="545" y="412" type="curve" smooth="yes"/>
      <point x="616" y="393" type="line"/>
      <point x="570" y="312" type="line"/>
      <point x="275" y="312" type="line" smooth="yes"/>
      <point x="230" y="312"/>
      <point x="203" y="297"/>
      <point x="195" y="258" type="curve" smooth="yes"/>
      <point x="177" y="175" type="line" smooth="yes"/>
      <point x="167" y="125"/>
      <point x="178" y="87"/>
      <point x="292" y="87" type="curve" smooth="yes"/>
      <point x="386" y="87"/>
      <point x="496" y="91"/>
      <point x="591" y="93" type="curve"/>
      <point x="525" y="-217" type="line"/>
      <point x="419" y="-192" type="line"/>
      <point x="459" y="-7" type="line"/>
      <point x="429" y="-8"/>
      <point x="337" y="-10"/>
      <point x="292" y="-10" type="curve" smooth="yes"/>
      <point x="125" y="-10"/>
      <point x="31" y="20"/>
      <point x="60" y="156" type="curve" smooth="yes"/>
      <point x="81" y="256" type="line" smooth="yes"/>
      <point x="104" y="360"/>
      <point x="184" y="405"/>
      <point x="293" y="405" type="curve" smooth="yes"/>
      <point x="314" y="405" type="line"/>
      <point x="233" y="439"/>
      <point x="226" y="501"/>
      <point x="237" y="550" type="curve" smooth="yes"/>
      <point x="259" y="655"/>
      <point x="349" y="702"/>
      <point x="464" y="702" type="curve" smooth="yes"/>
      <point x="707" y="702" type="line"/>
    </contour>
  </outline>
</glyph>
<glyph name="sigma1" format="1">
  <advance width="496" height="962"/>
  <unicode hex="03C2"/>
  <outline>
    <contour>
      <point x="184" y="232" type="line" smooth="yes"/>
      <point x="176" y="191"/>
      <point x="215" y="177"/>
      <point x="246" y="160" type="curve" smooth="yes"/>
      <point x="338" y="110" type="line" smooth="yes"/>
      <point x="382" y="86"/>
      <point x="428" y="53"/>
      <point x="414" y="-13" type="curve" smooth="yes"/>
      <point x="401" y="-73"/>
      <point x="345" y="-114"/>
      <point x="286" y="-148" type="curve"/>
      <point x="237" y="-83" type="line"/>
      <point x="262" y="-69"/>
      <point x="293" y="-47"/>
      <point x="297" y="-27" type="curve" smooth="yes"/>
      <point x="303" y="1"/>
      <point x="287" y="11"/>
      <point x="253" y="29" type="curve" smooth="yes"/>
      <point x="150" y="84" type="line" smooth="yes"/>
      <point x="100" y="110"/>
      <point x="58" y="159"/>
      <point x="74" y="233" type="curve" smooth="yes"/>
      <point x="96" y="340" type="line" smooth="yes"/>
      <point x="117" y="438"/>
      <point x="212" y="507"/>
      <point x="398" y="507" type="curve" smooth="yes"/>
      <point x="459" y="507"/>
      <point x="522" y="495"/>
      <point x="568" y="471" type="curve"/>
      <point x="504" y="379" type="line"/>
      <point x="473" y="391"/>
      <point x="403" y="399"/>
      <point x="352" y="399" type="curve" smooth="yes"/>
      <point x="268" y="399"/>
      <point x="215" y="376"/>
      <point x="206" y="336" type="curve" smooth="yes"/>
    </contour>
  </outline>
</glyph>
<glyph name="chi" format="1">
  <advance width="742" height="962"/>
  <unicode hex="03C7"/>
  <outline>
    <contour>
      <point x="593" y="-50" type="line" smooth="yes"/>
      <point x="620" y="-102"/>
      <point x="645" y="-141"/>
      <point x="712" y="-141" type="curve"/>
      <point x="661" y="-213" type="line"/>
      <point x="582" y="-213"/>
      <point x="531" y="-183"/>
      <point x="497" y="-118" type="curve" smooth="yes"/>
      <point x="383" y="97" type="line"/>
      <point x="70" y="-205" type="line"/>
      <point x="-27" y="-164" type="line"/>
      <point x="336" y="187" type="line"/>
      <point x="168" y="501" type="line"/>
      <point x="302" y="501" type="line"/>
      <point x="425" y="272" type="line"/>
      <point x="661" y="501" type="line"/>
      <point x="801" y="501" type="line"/>
      <point x="472" y="182" type="line"/>
    </contour>
  </outline>
</glyph>
<glyph name="omega" format="1">
  <advance width="863" height="962"/>
  <unicode hex="03C9"/>
  <outline>
    <contour>
      <point x="776" y="500" type="line"/>
      <point x="876" y="472"/>
      <point x="921" y="428"/>
      <point x="897" y="316" type="curve" smooth="yes"/>
      <point x="870" y="187" type="line" smooth="yes"/>
      <point x="841" y="50"/>
      <point x="763" y="-13"/>
      <point x="617" y="-13" type="curve" smooth="yes"/>
      <point x="549" y="-13"/>
      <point x="471" y="5"/>
      <point x="444" y="49" type="curve"/>
      <point x="394" y="5"/>
      <point x="311" y="-13"/>
      <point x="243" y="-13" type="curve" smooth="yes"/>
      <point x="100" y="-13"/>
      <point x="38" y="34"/>
      <point x="71" y="187" type="curve" smooth="yes"/>
      <point x="98" y="316" type="line" smooth="yes"/>
      <point x="122" y="428"/>
      <point x="190" y="473"/>
      <point x="300" y="500" type="curve"/>
      <point x="328" y="424" type="line"/>
      <point x="283" y="412"/>
      <point x="225" y="390"/>
      <point x="210" y="322" type="curve" smooth="yes"/>
      <point x="177" y="167" type="line" smooth="yes"/>
      <point x="165" y="108"/>
      <point x="214" y="92"/>
      <point x="273" y="92" type="curve" smooth="yes"/>
      <point x="334" y="92"/>
      <point x="398" y="104"/>
      <point x="411" y="167" type="curve" smooth="yes"/>
      <point x="439" y="297" type="line"/>
      <point x="550" y="297" type="line"/>
      <point x="522" y="167" type="line" smooth="yes"/>
      <point x="509" y="104"/>
      <point x="570" y="92"/>
      <point x="628" y="92" type="curve" smooth="yes"/>
      <point x="683" y="92"/>
      <point x="741" y="108"/>
      <point x="753" y="167" type="curve" smooth="yes"/>
      <point x="786" y="322" type="line" smooth="yes"/>
      <point x="801" y="390"/>
      <point x="756" y="412"/>
      <point x="714" y="424" type="curve"/>
    </contour>
  </outline>
</glyph>
<glyph name="uni0404" format="1">
  <advance width="608" height="962"/>
  <unicode hex="0404"/>
  <outline>
    <component base="C"/>
    <contour>
      <point x="206" y="309" type="line"/>
      <point x="228" y="414" type="line"/>
      <point x="514" y="414" type="line"/>
      <point x="446" y="309" type="line"/>
    </contour>
  </outline>
</glyph>
<glyph name="uni0411" format="1">
  <advance width="650" height="962"/>
  <unicode hex="0411"/>
  <outline>
    <component base="uni042C"/>
    <contour>
      <point x="167" y="590" type="line"/>
      <point x="191" y="700" type="line"/>
      <point x="713" y="700" type="line"/>
      <point x="689" y="590" type="line"/>
    </contour>
  </outline>
</glyph>
<glyph name="uni0416" format="1">
  <advance width="1074" height="962"/>
  <unicode hex="0416"/>
  <outline>
    <contour>
      <point x="924" y="0" type="line"/>
      <point x="780" y="304" type="line"/>
      <point x="657" y="304" type="line"/>
      <point x="592" y="0" type="line"/>
      <point x="481" y="0" type="line"/>
      <point x="546" y="304" type="line"/>
      <point x="423" y="304" type="line"/>
      <point x="155" y="0" type="line"/>
      <point x="18" y="0" type="line"/>
      <point x="330" y="351" type="line"/>
      <point x="191" y="700" type="line"/>
      <point x="327" y="700" type="line"/>
      <point x="445" y="395" type="line"/>
      <point x="565" y="395" type="line"/>
      <point x="630" y="700" type="line"/>
      <point x="741" y="700" type="line"/>
      <point x="676" y="395" type="line"/>
      <point x="796" y="395" type="line"/>
      <point x="1043" y="700" type="line"/>
      <point x="1179" y="700" type="line"/>
      <point x="887" y="351" type="line"/>
      <point x="1054" y="0" type="line"/>
    </contour>
  </outline>
</glyph>
<glyph name="uni0417" format="1">
  <advance width="671" height="962"/>
  <unicode hex="0417"/>
  <outline>
    <contour>
      <point x="232" y="412" type="line"/>
      <point x="378" y="412" type="line" smooth="yes"/>
      <point x="494" y="412"/>
      <point x="576" y="451"/>
      <point x="590" y="518" type="curve" smooth="yes"/>
      <point x="604" y="582"/>
      <point x="553" y="607"/>
      <point x="437" y="607" type="curve" smooth="yes"/>
      <point x="380" y="607"/>
      <point x="312" y="598"/>
      <point x="263" y="587" type="curve"/>
      <point x="236" y="675" type="line"/>
      <point x="314" y="699"/>
      <point x="388" y="710"/>
      <point x="460" y="710" type="curve" smooth="yes"/>
      <point x="645" y="710"/>
      <point x="737" y="655"/>
      <point x="711" y="531" type="curve" smooth="yes"/>
      <point x="697" y="464"/>
      <point x="654" y="417"/>
      <point x="586" y="387" type="curve"/>
      <point x="653" y="358"/>
      <point x="704" y="299"/>
      <point x="685" y="210" type="curve" smooth="yes"/>
      <point x="660" y="95"/>
      <point x="544" y="-12"/>
      <point x="253" y="-12" type="curve" smooth="yes"/>
      <point x="132" y="-12"/>
      <point x="19" y="21"/>
      <point x="19" y="21" type="curve"/>
      <point x="75" y="116" type="line"/>
      <point x="75" y="116"/>
      <point x="201" y="93"/>
      <point x="315" y="93" type="curve" smooth="yes"/>
      <point x="465" y="93"/>
      <point x="552" y="139"/>
      <point x="565" y="204" type="curve" smooth="yes"/>
      <point x="579" y="266"/>
      <point x="521" y="307"/>
      <point x="415" y="307" type="curve" smooth="yes"/>
      <point x="261" y="307" type="line"/>
    </contour>
  </outline>
</glyph>
<glyph name="uni042A" format="1">
  <advance width="789" height="962"/>
  <unicode hex="042A"/>
  <outline>
    <component base="uni042C" xOffset="140.5"/>
    <contour>
      <point x="150" y="700" type="line"/>
      <point x="389" y="700" type="line"/>
      <point x="366" y="593" type="line"/>
      <point x="308" y="593" type="line"/>
      <point x="127" y="595" type="line"/>
    </contour>
  </outline>
</glyph>
<glyph name="uni042E" format="1">
  <advance width="996" height="962"/>
  <unicode hex="042E"/>
  <outline>
    <component base="O" xOffset="295.5"/>
    <component base="I" xOffset="-6"/>
    <contour>
      <point x="471" y="399" type="line"/>
      <point x="451" y="307" type="line"/>
      <point x="224" y="307" type="line"/>
      <point x="244" y="399" type="line"/>
    </contour>
  </outline>
</glyph>
<glyph name="uni043C" format="1">
  <advance width="847" height="962"/>
  <unicode hex="043C"/>
  <outline>
    <contour>
      <point x="789" y="500" type="line"/>
      <point x="913" y="500" type="line"/>
      <point x="807" y="-1" type="line"/>
      <point x="697" y="-1" type="line"/>
      <point x="767" y="330" type="line"/>
      <point x="481" y="-1" type="line"/>
      <point x="362" y="-1" type="line"/>
      <point x="218" y="329" type="line"/>
      <point x="148" y="-1" type="line"/>
      <point x="36" y="-1" type="line"/>
      <point x="142" y="500" type="line"/>
      <point x="267" y="500" type="line"/>
      <point x="444" y="101" type="line"/>
    </contour>
  </outline>
</glyph>
<glyph name="uni0459" format="1">
  <advance width="1165" height="962"/>
  <unicode hex="0459"/>
  <outline>
    <contour>
      <point x="989" y="303" type="line" smooth="yes"/>
      <point x="1108" y="303"/>
      <point x="1193" y="264"/>
      <point x="1170" y="153" type="curve" smooth="yes"/>
      <point x="1149" y="56"/>
      <point x="1049" y="-11"/>
      <point x="880" y="-11" type="curve" smooth="yes"/>
      <point x="757" y="-11"/>
      <point x="584" y="0"/>
      <point x="584" y="0" type="curve"/>
      <point x="670" y="403" type="line"/>
      <point x="554" y="403" type="line" smooth="yes"/>
      <point x="490" y="403"/>
      <point x="447" y="394"/>
      <point x="414" y="344" type="curve" smooth="yes"/>
      <point x="282" y="140" type="line" smooth="yes"/>
      <point x="217" y="40"/>
      <point x="164" y="-5"/>
      <point x="51" y="-25" type="curve"/>
      <point x="6" y="28" type="line"/>
      <point x="68" y="49"/>
      <point x="102" y="57"/>
      <point x="147" y="125" type="curve" smooth="yes"/>
      <point x="295" y="349" type="line" smooth="yes"/>
      <point x="337" y="413"/>
      <point x="387" y="500"/>
      <point x="567" y="500" type="curve" smooth="yes"/>
      <point x="801" y="500" type="line"/>
      <point x="759" y="303" type="line"/>
    </contour>
    <contour>
      <point x="915" y="100" type="curve" smooth="yes"/>
      <point x="983" y="102"/>
      <point x="1036" y="114"/>
      <point x="1044" y="152" type="curve" smooth="yes"/>
      <point x="1051" y="185"/>
      <point x="1025" y="199"/>
      <point x="964" y="199" type="curve" smooth="yes"/>
      <point x="737" y="199" type="line"/>
      <point x="717" y="104" type="line"/>
      <point x="762" y="101"/>
      <point x="845" y="98"/>
    </contour>
  </outline>
</glyph>
<glyph name="uni045F" format="1">
  <advance width="628" height="962"/>
  <unicode hex="045F"/>
  <outline>
    <contour>
      <point x="694" y="500" type="line"/>
      <point x="588" y="0" type="line"/>
      <point x="368" y="0" type="line"/>
      <point x="330" y="-125" type="line"/>
      <point x="238" y="-125" type="line"/>
      <point x="255" y="0" type="line"/>
      <point x="35" y="0" type="line"/>
      <point x="141" y="500" type="line"/>
      <point x="252" y="500" type="line"/>
      <point x="169" y="108" type="line"/>
      <point x="499" y="108" type="line"/>
      <point x="582" y="500" type="line"/>
    </contour>
  </outline>
</glyph>
<glyph name="uni046A" format="1">
  <advance width="866" height="962"/>
  <unicode hex="046A"/>
  <outline>
    <contour>
      <point x="660" y="376" type="line" smooth="yes"/>
      <point x="837" y="376"/>
      <point x="890" y="299"/>
      <point x="865" y="183" type="curve" smooth="yes"/>
      <point x="826" y="0" type="line"/>
      <point x="715" y="0" type="line"/>
      <point x="750" y="165" type="line" smooth="yes"/>
      <point x="770" y="258"/>
      <point x="721" y="283"/>
      <point x="621" y="283" type="curve" smooth="yes"/>
      <point x="542" y="283" type="line"/>
      <point x="482" y="0" type="line"/>
      <point x="371" y="0" type="line"/>
      <point x="431" y="283" type="line"/>
      <point x="347" y="283" type="line" smooth="yes"/>
      <point x="253" y="283"/>
      <point x="200" y="257"/>
      <point x="180" y="167" type="curve" smooth="yes"/>
      <point x="145" y="0" type="line"/>
      <point x="35" y="0" type="line"/>
      <point x="74" y="183" type="line" smooth="yes"/>
      <point x="99" y="300"/>
      <point x="188" y="376"/>
      <point x="356" y="376" type="curve" smooth="yes"/>
      <point x="429" y="376" type="line"/>
      <point x="223" y="700" type="line"/>
      <point x="933" y="700" type="line"/>
      <point x="591" y="376" type="line"/>
    </contour>
    <contour>
      <point x="522" y="433" type="line"/>
      <point x="703" y="609" type="line"/>
      <point x="414" y="609" type="line"/>
    </contour>
  </outline>
</glyph>
<glyph name="uni0475" format="1">
  <advance width="693" height="962"/>
  <unicode hex="0475"/>
  <outline>
    <contour>
      <point x="754" y="521" type="curve"/>
      <point x="791" y="467" type="line"/>
      <point x="734" y="451"/>
      <point x="696" y="436"/>
      <point x="651" y="372" type="curve" smooth="yes"/>
      <point x="393" y="-2" type="line"/>
      <point x="259" y="-2" type="line"/>
      <point x="124" y="500" type="line"/>
      <point x="246" y="500" type="line"/>
      <point x="348" y="109" type="line"/>
      <point x="517" y="356" type="line" smooth="yes"/>
      <point x="593" y="468"/>
      <point x="618" y="501"/>
    </contour>
  </outline>
</glyph>
<glyph name="uni0492" format="1">
  <advance width="559" height="962"/>
  <unicode hex="0492"/>
  <outline>
    <component base="Gamma" xOffset="10"/>
    <contour>
      <point x="68" y="323" type="line"/>
      <point x="87" y="414" type="line"/>
      <point x="547" y="414" type="line"/>
      <point x="528" y="323" type="line"/>
    </contour>
  </outline>
</glyph>
<glyph name="uni049A" format="1">
  <advance width="669" height="962"/>
  <unicode hex="049A"/>
  <outline>
    <component base="K"/>
    <contour>
      <point x="544" y="110" type="line"/>
      <point x="673" y="110" type="line"/>
      <point x="623" y="-125" type="line"/>
      <point x="522" y="-125" type="line"/>
      <point x="538" y="0" type="line"/>
      <point x="521" y="0" type="line"/>
    </contour>
  </outline>
</glyph>
<glyph name="uni04A0" format="1">
  <advance width="789" height="962"/>
  <unicode hex="04A0"/>
  <outline>
    <component base="K" xOffset="130.5"/>
    <contour>
      <point x="151" y="700" type="line"/>
      <point x="379" y="700" type="line"/>
      <point x="356" y="593" type="line"/>
      <point x="296" y="593" type="line"/>
      <point x="128" y="595" type="line"/>
    </contour>
  </outline>
</glyph>
<glyph name="uni04A2" format="1">
  <advance width="811" height="962"/>
  <unicode hex="04A2"/>
  <outline>
    <component base="H"/>
    <contour>
      <point x="649" y="110" type="line"/>
      <point x="808" y="110" type="line"/>
      <point x="758" y="-125" type="line"/>
      <point x="660" y="-125" type="line"/>
      <point x="675" y="0" type="line"/>
      <point x="626" y="0" type="line"/>
    </contour>
  </outline>
</glyph>
<glyph name="uni04BB" format="1">
  <advance width="629" height="962"/>
  <unicode hex="04BB"/>
  <outline>
    <contour>
      <point x="38" y="0" type="line"/>
      <point x="144" y="501" type="line"/>
      <point x="255" y="501" type="line"/>
      <point x="226" y="360" type="line"/>
      <point x="262" y="377"/>
      <point x="335" y="396"/>
      <point x="420" y="396" type="curve" smooth="yes"/>
      <point x="533" y="396"/>
      <point x="669" y="359"/>
      <point x="642" y="230" type="curve" smooth="yes"/>
      <point x="593" y="0" type="line"/>
      <point x="482" y="0" type="line"/>
      <point x="529" y="219" type="line" smooth="yes"/>
      <point x="541" y="277"/>
      <point x="472" y="296"/>
      <point x="380" y="296" type="curve" smooth="yes"/>
      <point x="287" y="296"/>
      <point x="204" y="260"/>
      <point x="194" y="214" type="curve" smooth="yes"/>
      <point x="149" y="0" type="line"/>
    </contour>
  </outline>
</glyph>
<glyph name="bullet" format="1">
  <advance width="414" height="962"/>
  <unicode hex="2022"/>
  <outline>
    <contour>
      <point x="432" y="464" type="curve" smooth="yes"/>
      <point x="460" y="429"/>
      <point x="469" y="387"/>
      <point x="459" y="338" type="curve" smooth="yes"/>
      <point x="448" y="289"/>
      <point x="420" y="246"/>
      <point x="378" y="211" type="curve" smooth="yes"/>
      <point x="335" y="176"/>
      <point x="291" y="159"/>
      <point x="242" y="159" type="curve" smooth="yes"/>
      <point x="192" y="159"/>
      <point x="153" y="175"/>
      <point x="125" y="211" type="curve" smooth="yes"/>
      <point x="97" y="246"/>
      <point x="90" y="289"/>
      <point x="101" y="338" type="curve" smooth="yes"/>
      <point x="111" y="388"/>
      <point x="136" y="430"/>
      <point x="179" y="464" type="curve" smooth="yes"/>
      <point x="221" y="499"/>
      <point x="268" y="516"/>
      <point x="318" y="516" type="curve" smooth="yes"/>
      <point x="367" y="516"/>
      <point x="405" y="498"/>
    </contour>
  </outline>
</glyph>
<glyph name="uni20AE" format="1">
  <advance width="606" height="962"/>
  <unicode hex="20AE"/>
  <outline>
    <component base="T" xOffset="-5"/>
    <contour>
      <point x="598" y="413" type="line"/>
      <point x="610" y="333" type="line"/>
      <point x="142" y="201" type="line"/>
      <point x="130" y="282" type="line"/>
    </contour>
    <contour>
      <point x="629" y="561" type="line"/>
      <point x="640" y="481" type="line"/>
      <point x="172" y="349" type="line"/>
      <point x="161" y="430" type="line"/>
    </contour>
  </outline>
</glyph>
<glyph name="uni20B4" format="1">
  <advance width="774" height="962"/>
  <unicode hex="20B4"/>
  <outline>
    <contour>
      <point x="152" y="437" type="line"/>
      <point x="170" y="491" type="line"/>
      <point x="786" y="407" type="line"/>
      <point x="767" y="353" type="line"/>
    </contour>
    <contour>
      <point x="102" y="340" type="line"/>
      <point x="121" y="394" type="line"/>
      <point x="736" y="310" type="line"/>
      <point x="716" y="256" type="line"/>
    </contour>
    <contour>
      <point x="264" y="581" type="curve"/>
      <point x="258" y="673" type="line"/>
      <point x="337" y="699"/>
      <point x="444" y="710"/>
      <point x="525" y="710" type="curve" smooth="yes"/>
      <point x="683" y="710"/>
      <point x="827" y="663"/>
      <point x="800" y="535" type="curve" smooth="yes"/>
      <point x="751" y="307"/>
      <point x="219" y="336"/>
      <point x="189" y="192" type="curve" smooth="yes"/>
      <point x="174" y="124"/>
      <point x="276" y="92"/>
      <point x="390" y="92" type="curve" smooth="yes"/>
      <point x="502" y="92"/>
      <point x="632" y="116"/>
      <point x="706" y="162" type="curve"/>
      <point x="754" y="91" type="line"/>
      <point x="657" y="25"/>
      <point x="516" y="-12"/>
      <point x="370" y="-12" type="curve" smooth="yes"/>
      <point x="154" y="-12"/>
      <point x="33" y="50"/>
      <point x="64" y="199" type="curve" smooth="yes"/>
      <point x="117" y="447"/>
      <point x="652" y="421"/>
      <point x="678" y="543" type="curve" smooth="yes"/>
      <point x="690" y="597"/>
      <point x="588" y="608"/>
      <point x="506" y="608" type="curve" smooth="yes"/>
      <point x="439" y="608"/>
      <point x="329" y="599"/>
    </contour>
  </outline>
</glyph>
<glyph name="y_lower_alt" format="1">
  <advance width="714" height="962"/>
  <unicode hex="9998"/>
  <outline>
    <contour>
      <point x="113" y="-209" type="line"/>
      <point x="303" y="30" type="line"/>
      <point x="119" y="500" type="line"/>
      <point x="247" y="500" type="line"/>
      <point x="387" y="138" type="line"/>
      <point x="671" y="500" type="line"/>
      <point x="802" y="500" type="line"/>
      <point x="242" y="-209" type="line"/>
    </contour>
  </outline>
</glyph>
<glyph name="commaturnedbelowcomb" format="1">
  <advance width="267" height="962"/>
  <outline>
    <contour>
      <point x="56" y="-217" type="line"/>
      <point x="70" y="-198"/>
      <point x="78" y="-179"/>
      <point x="86" y="-159" type="curve"/>
      <point x="61" y="-152"/>
      <point x="47" y="-129"/>
      <point x="53" y="-101" type="curve" smooth="yes"/>
      <point x="60" y="-68"/>
      <point x="92" y="-41"/>
      <point x="126" y="-41" type="curve" smooth="yes"/>
      <point x="158" y="-41"/>
      <point x="179" y="-68"/>
      <point x="172" y="-101" type="curve" smooth="yes"/>
      <point x="152" y="-191"/>
      <point x="74" y="-234"/>
      <point x="76" y="-234" type="curve"/>
    </contour>
  </outline>
</glyph>
